<svg width="20" height="20" viewBox="0 0 20 20" fill="none" xmlns="http://www.w3.org/2000/svg">
<g id="businessman-information_svgrepo.com">
<g id="Group">
<g id="Group_2">
<path id="Vector" d="M15.1506 10.774C14.3743 10.774 13.6521 11.0235 13.0457 11.4481C12.316 10.9588 11.5031 10.5605 10.6237 10.3223C12.0208 9.31808 12.9828 7.33926 12.9828 5.55594C12.9828 3.0403 11.073 1 8.7195 1C6.36542 1 4.45621 3.03975 4.45621 5.55594C4.45621 7.33926 5.41815 9.31808 6.81524 10.3223C3.47454 11.227 1 14.3258 1 16.6212C1 17.9784 4.85944 18.6559 8.71888 18.6553L6.55665 16.3456L8.37722 11.6431H8.35873L7.65125 10.7766C7.99259 10.9078 8.34953 10.987 8.71939 10.987C9.08832 10.987 9.44475 10.9077 9.78609 10.7773L9.07861 11.6431H9.06136L10.8816 16.3449L8.72012 18.6546C10.2462 18.6546 11.7711 18.5476 13.0595 18.3352C13.6622 18.7533 14.3794 19 15.1506 19C17.2731 19 19 17.1549 19 14.8869C19.0006 12.6191 17.2731 10.774 15.1506 10.774ZM15.1506 18.3117C13.384 18.3117 11.9454 16.7751 11.9454 14.887C11.9454 12.9983 13.3829 11.4617 15.1506 11.4617C16.9183 11.4617 18.3564 12.9983 18.3564 14.887C18.3565 16.7751 16.9177 18.3117 15.1506 18.3117Z" fill="#121127"/>
<path id="Vector_2" d="M15.2747 13.1531C15.3779 13.1531 15.471 13.1034 15.5541 13.0019C15.6371 12.9003 15.6779 12.7902 15.6779 12.6712C15.6779 12.5523 15.6464 12.454 15.5842 12.3761C15.5213 12.2981 15.4396 12.2598 15.3389 12.2598C15.2381 12.2598 15.1464 12.3142 15.0621 12.423C14.9783 12.5319 14.9375 12.6436 14.9375 12.7592C14.9375 12.8762 14.9677 12.9702 15.0281 13.0435C15.0884 13.1168 15.1709 13.1531 15.2747 13.1531Z" fill="#121127"/>
<path id="Vector_3" d="M15.7577 16.8026C15.64 16.892 15.5401 16.937 15.4557 16.937C15.372 16.937 15.3305 16.8604 15.3305 16.7071C15.3305 16.6305 15.3369 16.535 15.3482 16.4201L15.45 15.1738C15.494 14.6872 15.5162 14.4263 15.5162 14.3954C15.5162 14.0285 15.4022 13.8457 15.1757 13.8457C14.9745 13.8457 14.7707 13.9519 14.5643 14.163C14.358 14.3753 14.2013 14.6307 14.0938 14.9313L14.2674 15.0595C14.524 14.6502 14.6964 14.4459 14.7833 14.4459C14.87 14.4459 14.9128 14.5473 14.9128 14.7523C14.9128 14.8283 14.9091 14.9144 14.9009 15.0071L14.7694 16.2533C14.7373 16.6002 14.7217 16.8475 14.7217 16.9941C14.7217 17.1412 14.7531 17.2642 14.816 17.3631C14.8788 17.462 14.9871 17.5117 15.1406 17.5117C15.6289 17.5117 15.9836 17.1964 16.2038 16.566L16.049 16.4511C15.9722 16.5961 15.8753 16.7133 15.7577 16.8026Z" fill="#121127"/>
</g>
</g>
</g>
</svg>
