<svg width="240" height="186" viewBox="0 0 240 186" fill="none" xmlns="http://www.w3.org/2000/svg">
<g id="Union">
<mask id="path-1-inside-1_3661_3629" fill="white">
<path fill-rule="evenodd" clip-rule="evenodd" d="M240 5C240 2.23858 237.761 0 235 0H5C2.23858 0 0 2.23857 0 5V164C0 166.761 2.23857 169 5 169H45.4115C47.1979 169 48.8485 169.953 49.7417 171.5L56.6699 183.5C58.5944 186.833 63.4056 186.833 65.3301 183.5L72.2583 171.5C73.1515 169.953 74.8021 169 76.5884 169H235C237.761 169 240 166.761 240 164V5Z"/>
</mask>
<path fill-rule="evenodd" clip-rule="evenodd" d="M240 5C240 2.23858 237.761 0 235 0H5C2.23858 0 0 2.23857 0 5V164C0 166.761 2.23857 169 5 169H45.4115C47.1979 169 48.8485 169.953 49.7417 171.5L56.6699 183.5C58.5944 186.833 63.4056 186.833 65.3301 183.5L72.2583 171.5C73.1515 169.953 74.8021 169 76.5884 169H235C237.761 169 240 166.761 240 164V5Z" fill="white"/>
<path d="M65.3301 183.5L64.4641 183L65.3301 183.5ZM49.7417 171.5L48.8756 172L49.7417 171.5ZM5 1H235V-1H5V1ZM1 164V5H-1V164H1ZM45.4115 168H5V170H45.4115V168ZM57.5359 183L50.6077 171L48.8756 172L55.8038 184L57.5359 183ZM71.3923 171L64.4641 183L66.1962 184L73.1244 172L71.3923 171ZM235 168H76.5884V170H235V168ZM239 5V164H241V5H239ZM235 170C238.314 170 241 167.314 241 164H239C239 166.209 237.209 168 235 168V170ZM73.1244 172C73.8389 170.762 75.1594 170 76.5884 170V168C74.4449 168 72.4641 169.144 71.3923 171L73.1244 172ZM55.8038 184C58.1133 188 63.8868 188 66.1962 184L64.4641 183C62.9245 185.667 59.0755 185.667 57.5359 183L55.8038 184ZM45.4115 170C46.8406 170 48.1611 170.762 48.8756 172L50.6077 171C49.5359 169.144 47.5551 168 45.4115 168V170ZM-1 164C-1 167.314 1.68629 170 5 170V168C2.79086 168 1 166.209 1 164H-1ZM235 1C237.209 1 239 2.79086 239 5H241C241 1.68629 238.314 -1 235 -1V1ZM5 -1C1.68629 -1 -1 1.68629 -1 5H1C1 2.79086 2.79086 1 5 1V-1Z" fill="#9CA0AB" mask="url(#path-1-inside-1_3661_3629)"/>
</g>
</svg>
