<svg width="13" height="12" viewBox="0 0 13 12" fill="none" xmlns="http://www.w3.org/2000/svg">
<path id="Vector" d="M6.5 0C9.8137 0 12.5 2.68629 12.5 6C12.5 9.3137 9.8137 12 6.5 12C3.18629 12 0.5 9.3137 0.5 6C0.5 2.68629 3.18629 0 6.5 0ZM5 4.5V5.50001H5.99998V9H5V10H8.49999V9H7.49998V5.50001V4.5H5ZM6.75001 1.99999C6.33579 1.99999 6.00001 2.3358 6.00001 2.74999C6.00001 3.16421 6.33579 3.49999 6.75001 3.49999C7.1642 3.49999 7.50001 3.16421 7.50001 2.74999C7.50001 2.3358 7.1642 1.99999 6.75001 1.99999Z" fill="black"/>
</svg>
