<svg width="240" height="186" viewBox="0 0 240 186" fill="none" xmlns="http://www.w3.org/2000/svg">
<g id="Union">
<mask id="path-1-inside-1_3881_4811" fill="white">
<path fill-rule="evenodd" clip-rule="evenodd" d="M0 181C0 183.761 2.23857 186 5 186L235 186C237.761 186 240 183.761 240 181L240 22C240 19.2386 237.761 17 235 17H194.588C192.802 17 191.151 16.047 190.258 14.5L183.33 2.5C181.406 -0.833328 176.594 -0.833328 174.67 2.50002L167.742 14.5C166.849 16.047 165.198 17 163.412 17L5 17C2.23857 17 0 19.2386 0 22L0 181Z"/>
</mask>
<path fill-rule="evenodd" clip-rule="evenodd" d="M0 181C0 183.761 2.23857 186 5 186L235 186C237.761 186 240 183.761 240 181L240 22C240 19.2386 237.761 17 235 17H194.588C192.802 17 191.151 16.047 190.258 14.5L183.33 2.5C181.406 -0.833328 176.594 -0.833328 174.67 2.50002L167.742 14.5C166.849 16.047 165.198 17 163.412 17L5 17C2.23857 17 0 19.2386 0 22L0 181Z" fill="white"/>
<path d="M174.67 2.50002L175.536 3.00002L174.67 2.50002ZM190.258 14.5L191.124 14L190.258 14.5ZM235 185L5 185V187L235 187V185ZM239 22L239 181H241L241 22H239ZM194.588 18H235V16H194.588V18ZM182.464 3L189.392 15L191.124 14L184.196 2L182.464 3ZM168.608 15L175.536 3.00002L173.804 2.00002L166.876 14L168.608 15ZM5 18L163.412 18V16L5 16V18ZM1 181L1 22H-1L-1 181H1ZM5 16C1.68629 16 -1 18.6863 -1 22H1C1 19.7909 2.79086 18 5 18V16ZM166.876 14C166.161 15.2376 164.841 16 163.412 16V18C165.555 18 167.536 16.8564 168.608 15L166.876 14ZM184.196 2C181.887 -2 176.113 -1.99998 173.804 2.00002L175.536 3.00002C177.075 0.333344 180.925 0.333344 182.464 3L184.196 2ZM194.588 16C193.159 16 191.839 15.2376 191.124 14L189.392 15C190.464 16.8564 192.445 18 194.588 18V16ZM241 22C241 18.6863 238.314 16 235 16V18C237.209 18 239 19.7909 239 22H241ZM5 185C2.79086 185 1 183.209 1 181H-1C-1 184.314 1.68628 187 5 187V185ZM235 187C238.314 187 241 184.314 241 181H239C239 183.209 237.209 185 235 185V187Z" fill="#9CA0AB" mask="url(#path-1-inside-1_3881_4811)"/>
</g>
</svg>
