<svg
	width="31"
	height="30"
	viewBox="0 0 31 30"
	fill="none"
	xmlns="http://www.w3.org/2000/svg"
>
	<path
		fill-rule="evenodd"
		clip-rule="evenodd"
		d="M24.25 5H23V2.5H20.5V5H10.5V2.5H8V5H6.75C5.3625 5 4.25 6.125 4.25 7.5V25C4.25 26.375 5.3625 27.5 6.75 27.5H24.25C25.625 27.5 26.75 26.375 26.75 25V7.5C26.75 6.125 25.625 5 24.25 5ZM24.25 25H6.75V11.25H24.25V25ZM8.625 16.25C8.625 14.525 10.025 13.125 11.75 13.125C13.475 13.125 14.875 14.525 14.875 16.25C14.875 17.975 13.475 19.375 11.75 19.375C10.025 19.375 8.625 17.975 8.625 16.25Z"
		fill="#6C55FE"
	/>
</svg>
