<svg width="53" height="53" viewBox="0 0 53 53" fill="none" xmlns="http://www.w3.org/2000/svg">
<path d="M39.119 25C46.7853 25 53 31.1561 53 38.75C53 46.3439 46.7853 52.5 39.119 52.5C31.4528 52.5 25.2381 46.3439 25.2381 38.75C25.2381 31.1561 31.4528 25 39.119 25ZM5.04762 27.4975L27.2809 27.5005C26.2051 28.611 25.287 29.8725 24.5623 31.2498L5.04762 31.2475L4.79358 31.2725C4.47966 31.3357 4.26524 31.5045 4.15419 31.6125C4.04516 31.7225 3.87475 31.9333 3.81095 32.2449L3.78571 32.4975V36.25C3.78571 38.7725 4.92143 40.555 7.36195 41.855C9.44701 42.9673 12.4159 43.6408 15.6036 43.7378L16.4048 43.75L17.2058 43.7378C19.3856 43.6715 21.4622 43.3355 23.225 42.774C23.5381 44.0063 23.9969 45.1816 24.5794 46.2825C21.9287 47.1574 19.0057 47.5 16.4048 47.5C9.53462 47.5 0.415659 45.1099 0.013765 36.8241L0 36.25V32.4975C0 29.7375 2.26133 27.4975 5.04762 27.4975ZM39.119 30.004L38.8922 30.0241C38.3771 30.1167 37.971 30.519 37.8775 31.0293L37.8571 31.254V37.499L31.5476 37.5L31.3208 37.5201C30.8057 37.6128 30.3995 38.0151 30.306 38.5253L30.2857 38.75L30.306 38.9747C30.3995 39.4849 30.8057 39.8872 31.3208 39.9799L31.5476 40L37.8571 39.999V46.25L37.8775 46.4747C37.971 46.9849 38.3771 47.3872 38.8922 47.4799L39.119 47.5L39.3459 47.4799C39.861 47.3872 40.2671 46.9849 40.3606 46.4747L40.381 46.25V39.999L46.6905 40L46.9173 39.9799C47.4324 39.8872 47.8386 39.4849 47.932 38.9747L47.9524 38.75L47.932 38.5253C47.8386 38.0151 47.4324 37.6128 46.9173 37.5201L46.6905 37.5L40.381 37.499V31.254L40.3606 31.0293C40.2671 30.519 39.861 30.1167 39.3459 30.0241L39.119 30.004ZM16.4048 0C22.6764 0 27.7619 5.0375 27.7619 11.25C27.7619 17.4625 22.6764 22.5 16.4048 22.5C10.1331 22.5 5.04762 17.4625 5.04762 11.25C5.04762 5.0375 10.1331 0 16.4048 0ZM39.119 5C43.9976 5 47.9524 8.9175 47.9524 13.75C47.9524 18.5825 43.9976 22.5 39.119 22.5C34.2405 22.5 30.2857 18.5825 30.2857 13.75C30.2857 8.9175 34.2405 5 39.119 5ZM16.4048 3.75C12.2304 3.75 8.83333 7.115 8.83333 11.25C8.83333 15.385 12.2304 18.75 16.4048 18.75C20.5791 18.75 23.9762 15.385 23.9762 11.25C23.9762 7.115 20.5791 3.75 16.4048 3.75ZM39.119 8.75C36.3353 8.75 34.0714 10.9925 34.0714 13.75C34.0714 16.5075 36.3353 18.75 39.119 18.75C41.9028 18.75 44.1667 16.5075 44.1667 13.75C44.1667 10.9925 41.9028 8.75 39.119 8.75Z" fill="#121127"/>
</svg>
