<svg width="75" height="75" viewBox="0 0 75 75" fill="none" xmlns="http://www.w3.org/2000/svg">
<g clip-path="url(#clip0_5185_3562)">
<path d="M16.0328 21.1777C11.5742 21.1777 7.95703 24.7949 7.95703 29.2535C7.95703 33.6974 11.5742 37.3293 16.0328 37.3293C20.4915 37.3293 24.1086 33.7122 24.1086 29.2535C24.1086 24.7949 20.4915 21.1777 16.0328 21.1777ZM16.0328 33.1659C13.8773 33.1659 12.1204 31.409 12.1204 29.2535C12.1057 27.098 13.8625 25.3411 16.0328 25.3411C18.1883 25.3411 19.9452 27.098 19.9452 29.2535C19.9452 31.409 18.1883 33.1659 16.0328 33.1659Z" fill="black"/>
<path d="M37.4991 16.7637C32.878 16.7637 29.1133 20.5284 29.1133 25.1495C29.1133 29.7706 32.878 33.5353 37.4991 33.5353C42.1202 33.5353 45.8849 29.7706 45.8849 25.1495C45.8849 20.5284 42.1202 16.7637 37.4991 16.7637ZM37.4991 29.2095C35.255 29.2095 33.4391 27.3788 33.4391 25.1495C33.4391 22.9202 35.255 21.0895 37.4991 21.0895C39.7432 21.0895 41.5591 22.9202 41.5591 25.1495C41.5591 27.3936 39.7284 29.2095 37.4991 29.2095Z" fill="black"/>
<path d="M58.982 21.1777C54.5234 21.1777 50.9062 24.7949 50.9062 29.2535C50.9062 33.6974 54.5234 37.3293 58.982 37.3293C63.4407 37.3293 67.0578 33.7122 67.0578 29.2535C67.0578 24.7949 63.4407 21.1777 58.982 21.1777ZM58.982 33.1659C56.8265 33.1659 55.0696 31.409 55.0696 29.2535C55.0696 27.098 56.8265 25.3411 58.982 25.3411C61.1375 25.3411 62.8944 27.098 62.8944 29.2535C62.8944 31.409 61.1375 33.1659 58.982 33.1659Z" fill="black"/>
<path d="M58.9813 40.1356C56.3681 40.1356 53.7845 40.7852 51.4813 42.0106C49.6949 39.7518 47.1555 38.113 44.188 37.5224C39.8032 36.6514 35.2264 36.6514 30.8415 37.5224C27.8888 38.113 25.3346 39.7518 23.5482 42.0106C21.2451 40.7852 18.6614 40.1356 16.0482 40.1356C7.18996 40.1356 0 47.3256 0 56.1543C0 57.3059 0.930118 58.236 2.08169 58.236H72.9183C74.0699 58.236 75 57.3059 75 56.1543C75 47.3256 67.81 40.1356 58.9813 40.1356ZM20.7874 49.924V54.0874H4.35532C5.34449 48.5362 10.2018 44.3138 16.0335 44.3138C17.9528 44.3138 19.8278 44.801 21.5108 45.672C21.0384 47.0008 20.7874 48.4329 20.7874 49.924ZM50.0492 54.0726H24.9508V49.9092C24.9508 45.864 27.7707 42.3797 31.6388 41.5972C35.4921 40.8295 39.5226 40.8295 43.376 41.5972C47.2441 42.3797 50.0492 45.8787 50.0492 49.924V54.0726ZM54.2274 54.0726V49.9092C54.2274 48.4329 53.9764 47.0008 53.5039 45.6573C55.187 44.7715 57.0768 44.299 58.9961 44.299C64.8278 44.299 69.685 48.5215 70.6742 54.0726H54.2274Z" fill="black"/>
</g>
<defs>
<clipPath id="clip0_5185_3562">
<rect width="75" height="75" fill="white"/>
</clipPath>
</defs>
</svg>
