<svg
	width="146"
	height="169"
	viewBox="0 0 146 169"
	fill="none"
	xmlns="http://www.w3.org/2000/svg"
>
	<mask id="path-1-inside-1_4988_2575" fill="white">
		<path
			fill-rule="evenodd"
			clip-rule="evenodd"
			d="M48.7864 13C47.0013 13 45.3516 12.0483 44.458 10.503L39.8284 2.49714C37.9031 -0.83219 33.0969 -0.832193 31.1716 2.49714L26.542 10.503C25.6484 12.0483 23.9987 13 22.2136 13H5C2.23858 13 0 15.2386 0 18V164C0 166.761 2.23857 169 5 169H141C143.761 169 146 166.761 146 164V18C146 15.2386 143.761 13 141 13H48.7864Z"
		/>
	</mask>
	<path
		fill-rule="evenodd"
		clip-rule="evenodd"
		d="M48.7864 13C47.0013 13 45.3516 12.0483 44.458 10.503L39.8284 2.49714C37.9031 -0.83219 33.0969 -0.832193 31.1716 2.49714L26.542 10.503C25.6484 12.0483 23.9987 13 22.2136 13H5C2.23858 13 0 15.2386 0 18V164C0 166.761 2.23857 169 5 169H141C143.761 169 146 166.761 146 164V18C146 15.2386 143.761 13 141 13H48.7864Z"
		fill="white"
	/>
	<path
		d="M26.542 10.503L27.4077 11.0036L26.542 10.503ZM44.458 10.503L43.5923 11.0036L44.458 10.503ZM31.1716 2.49714L30.3059 1.99654L31.1716 2.49714ZM38.9627 2.99774L43.5923 11.0036L45.3237 10.0024L40.6941 1.99654L38.9627 2.99774ZM27.4077 11.0036L32.0373 2.99774L30.3059 1.99654L25.6763 10.0024L27.4077 11.0036ZM5 14H22.2136V12H5V14ZM1 164V18H-1V164H1ZM141 168H5V170H141V168ZM145 18V164H147V18H145ZM48.7864 14H141V12H48.7864V14ZM147 18C147 14.6863 144.314 12 141 12V14C143.209 14 145 15.7909 145 18H147ZM141 170C144.314 170 147 167.314 147 164H145C145 166.209 143.209 168 141 168V170ZM-1 164C-1 167.314 1.68629 170 5 170V168C2.79086 168 1 166.209 1 164H-1ZM5 12C1.68629 12 -1 14.6863 -1 18H1C1 15.7909 2.79086 14 5 14V12ZM25.6763 10.0024C24.9614 11.2387 23.6417 12 22.2136 12V14C24.3557 14 26.3354 12.858 27.4077 11.0036L25.6763 10.0024ZM43.5923 11.0036C44.6646 12.858 46.6443 14 48.7864 14V12C47.3583 12 46.0386 11.2387 45.3237 10.0024L43.5923 11.0036ZM40.6941 1.99654C38.3837 -1.99866 32.6163 -1.99866 30.3059 1.99654L32.0373 2.99774C33.5775 0.334275 37.4225 0.334276 38.9627 2.99774L40.6941 1.99654Z"
		fill="#9CA0AB"
		mask="url(#path-1-inside-1_4988_2575)"
	/>
</svg>
