<svg
	width="147"
	height="170"
	viewBox="0 0 147 170"
	fill="none"
	xmlns="http://www.w3.org/2000/svg"
>
	<mask id="path-1-inside-1_5176_2694" fill="white">
		<path
			fill-rule="evenodd"
			clip-rule="evenodd"
			d="M50.8407 13.5901C49.1607 13.5901 47.593 12.7464 46.6676 11.3443L41.1105 2.9245C39.1343 -0.0698857 34.7407 -0.0698849 32.7645 2.9245L27.2074 11.3443C26.282 12.7465 24.7143 13.5901 23.0343 13.5901H5.9375C3.17608 13.5901 0.9375 15.8287 0.9375 18.5901V164.59C0.9375 167.352 3.17607 169.59 5.9375 169.59H141.938C144.699 169.59 146.938 167.352 146.938 164.59V18.5901C146.938 15.8287 144.699 13.5901 141.937 13.5901H50.8407Z"
		/>
	</mask>
	<path
		fill-rule="evenodd"
		clip-rule="evenodd"
		d="M50.8407 13.5901C49.1607 13.5901 47.593 12.7464 46.6676 11.3443L41.1105 2.9245C39.1343 -0.0698857 34.7407 -0.0698849 32.7645 2.9245L27.2074 11.3443C26.282 12.7465 24.7143 13.5901 23.0343 13.5901H5.9375C3.17608 13.5901 0.9375 15.8287 0.9375 18.5901V164.59C0.9375 167.352 3.17607 169.59 5.9375 169.59H141.938C144.699 169.59 146.938 167.352 146.938 164.59V18.5901C146.938 15.8287 144.699 13.5901 141.937 13.5901H50.8407Z"
		fill="white"
	/>
	<path
		d="M46.6676 11.3443L47.5022 10.7935L46.6676 11.3443ZM32.7645 2.9245L33.5991 3.47534L32.7645 2.9245ZM40.2759 3.47534L45.833 11.8952L47.5022 10.7935L41.9452 2.37366L40.2759 3.47534ZM28.042 11.8952L33.5991 3.47534L31.9298 2.37366L26.3728 10.7935L28.042 11.8952ZM5.9375 14.5901H23.0343V12.5901H5.9375V14.5901ZM1.9375 164.59V18.5901H-0.0625V164.59H1.9375ZM141.938 168.59H5.9375V170.59H141.938V168.59ZM145.938 18.5901V164.59H147.938V18.5901H145.938ZM50.8407 14.5901H141.937V12.5901H50.8407V14.5901ZM147.938 18.5901C147.938 15.2764 145.251 12.5901 141.937 12.5901V14.5901C144.147 14.5901 145.938 16.381 145.938 18.5901H147.938ZM141.938 170.59C145.251 170.59 147.938 167.904 147.938 164.59H145.938C145.938 166.799 144.147 168.59 141.938 168.59V170.59ZM-0.0625 164.59C-0.0625 167.904 2.62379 170.59 5.9375 170.59V168.59C3.72836 168.59 1.9375 166.799 1.9375 164.59H-0.0625ZM5.9375 12.5901C2.62379 12.5901 -0.0625 15.2764 -0.0625 18.5901H1.9375C1.9375 16.381 3.72836 14.5901 5.9375 14.5901V12.5901ZM26.3728 10.7935C25.6324 11.9152 24.3783 12.5901 23.0343 12.5901V14.5901C25.0503 14.5901 26.9315 13.5777 28.042 11.8952L26.3728 10.7935ZM45.833 11.8952C46.9435 13.5777 48.8247 14.5901 50.8407 14.5901V12.5901C49.4967 12.5901 48.2426 11.9152 47.5022 10.7935L45.833 11.8952ZM41.9452 2.37366C39.5736 -1.21961 34.3014 -1.2196 31.9298 2.37366L33.5991 3.47534C35.1801 1.07983 38.6949 1.07983 40.2759 3.47534L41.9452 2.37366Z"
		fill="#9CA0AB"
		mask="url(#path-1-inside-1_5176_2694)"
	/>
</svg>
