<svg width="21" height="21" viewBox="0 0 21 21" fill="none" xmlns="http://www.w3.org/2000/svg">
<g id="system-uicons:menu-vertical">
<g id="Group">
<path id="Vector" d="M11.5 10.5C11.5 9.94772 11.0523 9.5 10.5 9.5C9.94772 9.5 9.5 9.94772 9.5 10.5C9.5 11.0523 9.94772 11.5 10.5 11.5C11.0523 11.5 11.5 11.0523 11.5 10.5Z" fill="#121127"/>
<path id="Vector_2" d="M6.5 10.5C6.5 9.94772 6.05228 9.5 5.5 9.5C4.94772 9.5 4.5 9.94772 4.5 10.5C4.5 11.0523 4.94772 11.5 5.5 11.5C6.05228 11.5 6.5 11.0523 6.5 10.5Z" fill="#121127"/>
<path id="Vector_3" d="M16.5 10.5C16.5 9.94772 16.0523 9.5 15.5 9.5C14.9477 9.5 14.5 9.94772 14.5 10.5C14.5 11.0523 14.9477 11.5 15.5 11.5C16.0523 11.5 16.5 11.0523 16.5 10.5Z" fill="#121127"/>
</g>
</g>
</svg>
