<svg width="22" height="21" viewBox="0 0 22 21" fill="none" xmlns="http://www.w3.org/2000/svg">
<path d="M12 10.5C12 9.94772 11.5523 9.5 11 9.5C10.4477 9.5 10 9.94772 10 10.5C10 11.0523 10.4477 11.5 11 11.5C11.5523 11.5 12 11.0523 12 10.5Z" fill="#121127"/>
<path d="M7 10.5C7 9.94772 6.55228 9.5 6 9.5C5.44772 9.5 5 9.94772 5 10.5C5 11.0523 5.44772 11.5 6 11.5C6.55228 11.5 7 11.0523 7 10.5Z" fill="#121127"/>
<path d="M17 10.5C17 9.94772 16.5523 9.5 16 9.5C15.4477 9.5 15 9.94772 15 10.5C15 11.0523 15.4477 11.5 16 11.5C16.5523 11.5 17 11.0523 17 10.5Z" fill="#121127"/>
</svg>
