<svg width="95" height="95" viewBox="0 0 95 95" fill="none" xmlns="http://www.w3.org/2000/svg">
<rect width="95" height="95" fill="#DBDBDB"/>
<rect x="-245.5" y="-77.5" width="589" height="473" fill="white" stroke="#C9CCD7"/>
<circle cx="47.5" cy="47.5" r="46" stroke="#121127" stroke-width="3" stroke-dasharray="6 6"/>
<path d="M53.6617 58.8443L49.3683 54.5865C47.395 52.6298 46.4083 51.6513 45.2723 51.2843C44.273 50.9613 43.1975 50.9613 42.1981 51.2843C41.0621 51.6513 40.0754 52.6298 38.1021 54.5865L28.1048 64.6555M53.6617 58.8443L54.515 57.9978C56.53 55.9998 57.5372 55.0008 58.6932 54.6363C59.7097 54.3155 60.802 54.328 61.811 54.672C62.958 55.0632 63.9422 56.085 65.9105 58.1287L68 60.2502M53.6617 58.8443L63.55 68.907M28.1048 64.6555C28.1816 65.3065 28.3146 65.8178 28.545 66.27C29.0243 67.2108 29.7893 67.9757 30.7301 68.455C31.7996 69 33.1997 69 36 69H60C61.5532 69 62.6757 69 63.55 68.907M28.1048 64.6555C28 63.7665 28 62.6165 28 61V37C28 34.1997 28 32.7996 28.545 31.7301C29.0243 30.7892 29.7893 30.0243 30.7301 29.545C31.7996 29 33.1997 29 36 29H45.5M63.55 68.907C64.2517 68.8322 64.7938 68.6977 65.27 68.455C66.2108 67.9757 66.9757 67.2108 67.455 66.27C68 65.2005 68 63.8002 68 61V51.5M63 41.5V34M63 34V26.5M63 34H70.5M63 34H55.5" stroke="black" stroke-width="3" stroke-linecap="round" stroke-linejoin="round"/>
</svg>
