<svg
	width="264"
	height="461"
	viewBox="0 0 264 461"
	fill="none"
	xmlns="http://www.w3.org/2000/svg"
>
<mask id="path-1-inside-1_1439_1764" fill="white">
<path
			fill-rule="evenodd"
			clip-rule="evenodd"
			d="M143.054 10.0337C141.264 10.0337 139.611 9.07716 138.719 7.52557L135.835 2.50815C133.912 -0.836048 129.088 -0.83605 127.165 2.50815L124.281 7.52556C123.389 9.07716 121.736 10.0337 119.946 10.0337H5C2.23858 10.0337 0 12.2723 0 15.0337V455.99C0 458.752 2.23857 460.99 5 460.99H259C261.761 460.99 264 458.752 264 455.99V15.0337C264 12.2723 261.761 10.0337 259 10.0337H143.054Z"
		/>
</mask>
<path
		fill-rule="evenodd"
		clip-rule="evenodd"
		d="M143.054 10.0337C141.264 10.0337 139.611 9.07716 138.719 7.52557L135.835 2.50815C133.912 -0.836048 129.088 -0.83605 127.165 2.50815L124.281 7.52556C123.389 9.07716 121.736 10.0337 119.946 10.0337H5C2.23858 10.0337 0 12.2723 0 15.0337V455.99C0 458.752 2.23857 460.99 5 460.99H259C261.761 460.99 264 458.752 264 455.99V15.0337C264 12.2723 261.761 10.0337 259 10.0337H143.054Z"
		fill="white"
	/>
<path
		d="M124.281 7.52556L125.148 8.02394L124.281 7.52556ZM138.719 7.52557L137.852 8.02394L138.719 7.52557ZM127.165 2.50815L128.032 3.00652L127.165 2.50815ZM134.968 3.00652L137.852 8.02394L139.586 7.0272L136.702 2.00978L134.968 3.00652ZM125.148 8.02394L128.032 3.00652L126.298 2.00978L123.414 7.02719L125.148 8.02394ZM5 11.0337H119.946V9.03371H5V11.0337ZM1 455.99V15.0337H-1V455.99H1ZM259 459.99H5V461.99H259V459.99ZM263 15.0337V455.99H265V15.0337H263ZM143.054 11.0337H259V9.03371H143.054V11.0337ZM265 15.0337C265 11.72 262.314 9.03371 259 9.03371V11.0337C261.209 11.0337 263 12.8246 263 15.0337H265ZM259 461.99C262.314 461.99 265 459.304 265 455.99H263C263 458.199 261.209 459.99 259 459.99V461.99ZM-1 455.99C-1 459.304 1.68629 461.99 5 461.99V459.99C2.79086 459.99 1 458.199 1 455.99H-1ZM5 9.03371C1.68629 9.03371 -1 11.72 -1 15.0337H1C1 12.8246 2.79086 11.0337 5 11.0337V9.03371ZM123.414 7.02719C122.7 8.26847 121.378 9.03371 119.946 9.03371V11.0337C122.094 11.0337 124.078 9.88585 125.148 8.02394L123.414 7.02719ZM137.852 8.02394C138.922 9.88585 140.906 11.0337 143.054 11.0337V9.03371C141.622 9.03371 140.3 8.26847 139.586 7.0272L137.852 8.02394ZM136.702 2.00978C134.395 -2.00326 128.605 -2.00326 126.298 2.00978L128.032 3.00652C129.57 0.33116 133.43 0.331161 134.968 3.00652L136.702 2.00978Z"
		fill="#9CA0AB"
		mask="url(#path-1-inside-1_1439_1764)"
	/>
</svg>
