<svg width="25" height="30" viewBox="0 0 25 30" fill="none" xmlns="http://www.w3.org/2000/svg">
<path d="M25 19.4509H22.3959V12.1407C22.3959 8.37484 20.0051 5.17766 16.7153 4.09515C16.6533 1.82631 14.8557 0 12.6535 0H12.5845C10.4066 0 8.6236 1.78608 8.52457 4.0201C5.11164 5.02304 2.60403 8.28379 2.60403 12.1407V19.4509H0V26.3832H8.41124C8.72568 28.4303 10.4392 30 12.5 30C14.5607 30 16.2742 28.4303 16.5887 26.3832H24.9999V19.4509H25ZM12.5845 1.35631H12.6535C14.0316 1.35631 15.1769 2.41052 15.3789 3.78229C15.0131 3.72985 14.6396 3.70209 14.26 3.70209H10.7398C10.4441 3.70209 10.1521 3.719 9.86446 3.7511C10.0793 2.3947 11.2169 1.35631 12.5845 1.35631ZM12.5 28.6436C11.1628 28.6436 10.0398 27.6775 9.74372 26.3831H15.2562C14.9601 27.6775 13.8371 28.6436 12.5 28.6436ZM23.6924 25.0268H1.30764V20.8071H3.91175V12.1406C3.91175 8.23541 6.97484 5.05831 10.7399 5.05831H14.2601C18.0252 5.05831 21.0882 8.23541 21.0882 12.1406V20.8071H23.6924V25.0268Z" fill="black"/>
</svg>
