<svg width="18" height="18" viewBox="0 0 18 18" fill="none" xmlns="http://www.w3.org/2000/svg">
<g id="Group 6541">
<path id="Vector" d="M14.1506 9.77399C13.3743 9.77399 12.6521 10.0235 12.0457 10.4481C11.316 9.95878 10.5031 9.5605 9.62375 9.32228C11.0208 8.31808 11.9828 6.33926 11.9828 4.55594C11.9828 2.0403 10.073 0 7.7195 0C5.36542 0 3.45621 2.03975 3.45621 4.55594C3.45621 6.33926 4.41815 8.31808 5.81524 9.32228C2.47454 10.227 0 13.3258 0 15.6212C0 16.9784 3.85944 17.6559 7.71888 17.6553L5.55665 15.3456L7.37722 10.6431H7.35873L6.65125 9.77664C6.99259 9.90778 7.34953 9.98704 7.71939 9.98704C8.08832 9.98704 8.44475 9.90767 8.78609 9.7773L8.07861 10.6431H8.06136L9.88162 15.3449L7.72012 17.6546C9.24624 17.6546 10.7711 17.5476 12.0595 17.3352C12.6622 17.7533 13.3794 18 14.1506 18C16.2731 18 18 16.1549 18 13.8869C18.0006 11.6191 16.2731 9.77399 14.1506 9.77399ZM14.1506 17.3117C12.384 17.3117 10.9454 15.7751 10.9454 13.887C10.9454 11.9983 12.3829 10.4617 14.1506 10.4617C15.9183 10.4617 17.3564 11.9983 17.3564 13.887C17.3565 15.7751 15.9177 17.3117 14.1506 17.3117Z" fill="#121127"/>
<path id="Vector_2" d="M16.3429 13.7071L16.8 13.2004L15.5918 11.8613L13.698 13.9604C13.5347 13.8518 13.3388 13.8156 13.1429 13.8156C12.5224 13.8156 12 14.3947 12 15.0823C12 15.7699 12.5224 16.349 13.1429 16.349C13.7633 16.349 14.2857 15.7699 14.2857 15.0823C14.2857 14.8652 14.2204 14.648 14.1551 14.4671L14.7755 13.7794L15.5265 14.6118L15.9837 14.1052L15.2327 13.2728L15.5918 12.8747L16.3429 13.7071ZM13.1429 15.6252C12.8816 15.6252 12.6531 15.3718 12.6531 15.0823C12.6531 14.7928 12.8816 14.5394 13.1429 14.5394C13.4041 14.5394 13.6327 14.7928 13.6327 15.0823C13.6327 15.3718 13.4041 15.6252 13.1429 15.6252Z" fill="#121127"/>
</g>
</svg>
