<svg width="18" height="13" viewBox="0 0 18 13" fill="none" xmlns="http://www.w3.org/2000/svg">
<g id="Group 6570">
<path id="Vector" d="M0 9.75065C0 7.97732 3.60888 7.08398 5.41667 7.08398C7.22446 7.08398 10.8333 7.97732 10.8333 9.75065V12.084H0V9.75065Z" fill="#121127"/>
<path id="Vector_2" d="M8.33333 3.33268C8.33333 4.94414 7.02813 6.24935 5.41667 6.24935C3.80521 6.24935 2.5 4.94414 2.5 3.33268C2.5 1.72122 3.80521 0.416016 5.41667 0.416016C7.02813 0.416016 8.33333 1.72122 8.33333 3.33268Z" fill="#121127"/>
<path id="Vector_3" d="M15.4167 4.99935C15.4167 6.15039 14.4844 7.08268 13.3333 7.08268C12.1823 7.08268 11.25 6.15039 11.25 4.99935C11.25 3.84831 12.1823 2.91602 13.3333 2.91602C14.4844 2.91602 15.4167 3.84831 15.4167 4.99935Z" fill="#121127"/>
<path id="Vector_4" fill-rule="evenodd" clip-rule="evenodd" d="M11.6664 12.0827V9.74935C11.6664 9.18114 11.4449 8.70289 11.1328 8.31714C11.9037 8.05002 12.7431 7.91602 13.3331 7.91602C14.7237 7.91602 17.4997 8.66047 17.4997 10.1382V12.0827H11.6664Z" fill="#121127"/>
</g>
</svg>
