<svg width="77" height="77" viewBox="0 0 77 77" fill="none" xmlns="http://www.w3.org/2000/svg">
<path d="M75.355 70.93L50.025 45.6C53.9125 40.85 56.2675 34.7125 56.2675 28.0275C56.2675 20.2975 53.1175 13.3025 48.0325 8.255L48.03 8.2525H48.025C42.935 3.1525 35.8975 0 28.1225 0C12.59 0 0 12.59 0 28.1225C0 35.8975 3.155 42.9325 8.2525 48.025C13.3 53.115 20.295 56.2675 28.0275 56.2675C34.7125 56.2675 40.8475 53.9125 45.6475 49.985L45.5975 50.025L70.9275 75.355C71.4925 75.92 72.275 76.27 73.1375 76.27C74.865 76.27 76.265 74.87 76.265 73.1425C76.265 72.28 75.915 71.4975 75.35 70.9325L75.355 70.93ZM12.675 43.6075C8.7175 39.65 6.2675 34.18 6.2675 28.14C6.2675 16.06 16.06 6.2675 28.14 6.2675C34.18 6.2675 39.6475 8.715 43.6075 12.675H43.6125C47.57 16.6325 50.02 22.1 50.02 28.14C50.02 34.18 47.5725 39.645 43.6175 43.6025L43.6075 43.6075L43.6 43.6175C39.6425 47.5725 34.1775 50.0175 28.1425 50.0175C22.1 50.0175 16.6325 47.5675 12.675 43.6075ZM32.5625 28.1425L37.4225 23.2825C37.9875 22.7175 38.3375 21.935 38.3375 21.0725C38.3375 19.3475 36.9375 17.9475 35.2125 17.9475C34.35 17.9475 33.5675 18.2975 33.0025 18.8625L28.1425 23.7225L23.2825 18.8625C22.7175 18.2975 21.935 17.9475 21.0725 17.9475C19.3475 17.9475 17.9475 19.3475 17.9475 21.0725C17.9475 21.935 18.2975 22.7175 18.8625 23.2825L23.7225 28.1425L18.8625 33.0025C18.2975 33.5675 17.9475 34.35 17.9475 35.2125C17.9475 36.9375 19.3475 38.3375 21.0725 38.3375C21.935 38.3375 22.7175 37.9875 23.2825 37.4225L28.1425 32.5625L33.0025 37.4225C33.5675 37.9875 34.35 38.3375 35.2125 38.3375C36.9375 38.3375 38.3375 36.9375 38.3375 35.2125C38.3375 34.35 37.9875 33.5675 37.4225 33.0025L32.5625 28.1425Z" fill="black"/>
</svg>
