<svg width="64" height="64" viewBox="0 0 64 64" fill="none" xmlns="http://www.w3.org/2000/svg">
<g id="uil:padlock">
<path id="Vector" d="M32.0013 34.6673C31.1894 34.6578 30.3941 34.8973 29.7225 35.3535C29.0508 35.8096 28.535 36.4606 28.2445 37.2188C27.954 37.977 27.9028 38.806 28.0977 39.5941C28.2926 40.3823 28.7243 41.0919 29.3346 41.6273V45.334C29.3346 46.0412 29.6156 46.7195 30.1157 47.2196C30.6158 47.7197 31.2941 48.0006 32.0013 48.0006C32.7085 48.0006 33.3868 47.7197 33.8869 47.2196C34.387 46.7195 34.668 46.0412 34.668 45.334V41.6273C35.2783 41.0919 35.71 40.3823 35.9049 39.5941C36.0998 38.806 36.0486 37.977 35.7581 37.2188C35.4676 36.4606 34.9518 35.8096 34.2801 35.3535C33.6085 34.8973 32.8132 34.6578 32.0013 34.6673ZM45.3346 24.0007V18.6673C45.3346 15.1311 43.9299 11.7397 41.4294 9.23923C38.9289 6.73874 35.5375 5.33398 32.0013 5.33398C28.4651 5.33398 25.0737 6.73874 22.5732 9.23923C20.0727 11.7397 18.668 15.1311 18.668 18.6673V24.0007C16.5462 24.0007 14.5114 24.8435 13.0111 26.3438C11.5108 27.8441 10.668 29.8789 10.668 32.0006V50.6673C10.668 52.789 11.5108 54.8239 13.0111 56.3242C14.5114 57.8245 16.5462 58.6673 18.668 58.6673H45.3346C47.4564 58.6673 49.4912 57.8245 50.9915 56.3242C52.4918 54.8239 53.3346 52.789 53.3346 50.6673V32.0006C53.3346 29.8789 52.4918 27.8441 50.9915 26.3438C49.4912 24.8435 47.4564 24.0007 45.3346 24.0007ZM24.0013 18.6673C24.0013 16.5456 24.8442 14.5108 26.3444 13.0105C27.8447 11.5102 29.8796 10.6673 32.0013 10.6673C34.123 10.6673 36.1579 11.5102 37.6582 13.0105C39.1584 14.5108 40.0013 16.5456 40.0013 18.6673V24.0007H24.0013V18.6673ZM48.0013 50.6673C48.0013 51.3746 47.7204 52.0528 47.2203 52.5529C46.7202 53.053 46.0419 53.334 45.3346 53.334H18.668C17.9607 53.334 17.2824 53.053 16.7824 52.5529C16.2823 52.0528 16.0013 51.3746 16.0013 50.6673V32.0006C16.0013 31.2934 16.2823 30.6151 16.7824 30.115C17.2824 29.6149 17.9607 29.334 18.668 29.334H45.3346C46.0419 29.334 46.7202 29.6149 47.2203 30.115C47.7204 30.6151 48.0013 31.2934 48.0013 32.0006V50.6673Z" fill="black"/>
</g>
</svg>
