<svg width="17" height="18" viewBox="0 0 17 18" fill="none" xmlns="http://www.w3.org/2000/svg">
<path id="Vector" d="M8.33 0.669922C8.3275 0.669922 8.32563 0.669922 8.32313 0.669922C8.32188 0.669922 8.32125 0.669922 8.32 0.669922C8.31688 0.669922 8.31375 0.670547 8.31 0.670547C3.71813 0.681172 0 4.40617 0 8.99992C0 13.5924 3.71813 17.318 8.31 17.3293C8.31313 17.3293 8.31625 17.3299 8.32 17.3299C8.32125 17.3299 8.3225 17.3299 8.32313 17.3299C8.32563 17.3299 8.32813 17.3299 8.33 17.3299C12.93 17.3299 16.66 13.5999 16.66 8.99992C16.66 4.39992 12.93 0.669922 8.33 0.669922ZM8.66313 5.65492C9.54625 5.63055 10.4056 5.5143 11.2331 5.31242C11.4825 6.2943 11.6375 7.42617 11.6619 8.6668H8.66313V5.65492ZM8.66313 4.98867V1.3893C9.56125 1.63805 10.4713 2.83555 11.0513 4.6718C10.2819 4.85742 9.48313 4.96555 8.66313 4.98867ZM7.99688 1.38117V4.98867C7.17 4.96555 6.365 4.85555 5.58938 4.6668C6.17438 2.8193 7.0925 1.61742 7.99688 1.3818V1.38117ZM7.99688 5.6543V8.6668H4.9775C5.00188 7.4243 5.15688 6.29117 5.40688 5.30867C6.24063 5.51242 7.10688 5.63055 7.99688 5.6543ZM4.30688 8.6668H0.675C0.74875 6.95367 1.38688 5.3843 2.40813 4.14117C3.15 4.54992 3.93688 4.8843 4.76188 5.1343C4.4925 6.1968 4.33125 7.39492 4.30688 8.6668ZM4.30688 9.33305C4.33125 10.6043 4.4925 11.8024 4.76188 12.8649C3.9375 13.1155 3.15 13.4499 2.40813 13.8587C1.38625 12.6155 0.748125 11.0462 0.675 9.33305H4.30688ZM4.9775 9.33305H7.99688V12.3418C7.10688 12.3655 6.24063 12.4843 5.40625 12.6887C5.15688 11.7068 5.00188 10.5743 4.9775 9.33305ZM7.99688 13.0074V16.6187C7.09188 16.3824 6.1725 15.1793 5.58813 13.3293C6.36375 13.1405 7.16938 13.0305 7.99688 13.0074ZM8.66313 16.6112V13.008C9.48375 13.0318 10.2825 13.1399 11.0519 13.3255C10.4719 15.1637 9.56188 16.363 8.66313 16.6112ZM8.66313 12.3418V9.33305H11.6619C11.6375 10.5724 11.4831 11.7024 11.2344 12.6837C10.4062 12.4818 9.54688 12.3649 8.66375 12.3412L8.66313 12.3418ZM12.3325 9.33305H15.9856C15.9119 11.0462 15.2744 12.6149 14.2525 13.858C13.5044 13.4468 12.7106 13.1099 11.8794 12.8587C12.1481 11.7974 12.3088 10.6018 12.3331 9.33367L12.3325 9.33305ZM12.3325 8.6668C12.3081 7.39617 12.1469 6.20055 11.8781 5.13805C12.7094 4.8868 13.5025 4.55055 14.25 4.1393C15.2725 5.38242 15.9113 6.95242 15.985 8.6668H12.3325ZM13.7913 3.63055C13.1281 3.98305 12.4288 4.27492 11.6975 4.49617C11.3081 3.24305 10.7613 2.21992 10.1144 1.54805C11.5331 1.88867 12.8 2.62242 13.7913 3.63055ZM6.51938 1.5543C5.87625 2.22492 5.33188 3.24305 4.94375 4.48992C4.22 4.2693 3.52625 3.98055 2.86938 3.63055C3.85375 2.6293 5.11125 1.8968 6.51938 1.5543ZM2.86688 14.3668C3.52438 14.0162 4.21875 13.7268 4.94313 13.5062C5.33125 14.7543 5.87563 15.7743 6.51938 16.4449C5.11 16.1018 3.85188 15.3699 2.86688 14.3668ZM10.1144 16.4512C10.7619 15.7793 11.3088 14.7562 11.6988 13.5005C12.43 13.7224 13.13 14.013 13.7931 14.3674C12.8019 15.3762 11.5344 16.1118 10.1144 16.4512Z" fill="#121127"/>
</svg>
