<svg width="12" height="12" viewBox="0 0 12 12" fill="none" xmlns="http://www.w3.org/2000/svg">
<path d="M5.50006 2.5003L6.50006 1.5003C7.03049 0.969869 7.74991 0.671875 8.50006 0.671875C9.2502 0.671875 9.96963 0.969869 10.5001 1.5003C11.0305 2.03074 11.3285 2.75016 11.3285 3.5003C11.3285 4.25045 11.0305 4.96987 10.5001 5.5003L9.50006 6.5003M6.50006 9.5003L5.50006 10.5003C4.96963 11.0307 4.2502 11.3287 3.50006 11.3287C2.74991 11.3287 2.03049 11.0307 1.50006 10.5003C0.969625 9.96987 0.671631 9.25045 0.671631 8.5003C0.671631 7.75016 0.969625 7.03074 1.50006 6.5003L2.50006 5.5003M3.50006 8.5003L8.50006 3.5003" stroke="black" strokeLinecap="round" strokeLinejoin="round"/>
</svg>
